<svg width="26" height="16" viewBox="0 0 26 16" fill="none" xmlns="http://www.w3.org/2000/svg">
<path fill-rule="evenodd" clip-rule="evenodd" d="M0.75 7.87611C0.75 7.64404 0.842187 7.42148 1.00628 7.25739C1.17038 7.09329 1.39294 7.00111 1.625 7.00111H22.2628L16.7555 1.49561C16.5912 1.3313 16.4989 1.10846 16.4989 0.876105C16.4989 0.643748 16.5912 0.420907 16.7555 0.256605C16.9198 0.0923035 17.1426 5.47453e-09 17.375 0C17.6074 -5.47453e-09 17.8302 0.0923035 17.9945 0.256605L24.9945 7.25661C25.076 7.33788 25.1406 7.43444 25.1847 7.54075C25.2289 7.64705 25.2516 7.76101 25.2516 7.87611C25.2516 7.9912 25.2289 8.10516 25.1847 8.21146C25.1406 8.31777 25.076 8.41433 24.9945 8.49561L17.9945 15.4956C17.8302 15.6599 17.6074 15.7522 17.375 15.7522C17.1426 15.7522 16.9198 15.6599 16.7555 15.4956C16.5912 15.3313 16.4989 15.1085 16.4989 14.8761C16.4989 14.6437 16.5912 14.4209 16.7555 14.2566L22.2628 8.75111H1.625C1.39294 8.75111 1.17038 8.65892 1.00628 8.49482C0.842187 8.33073 0.75 8.10817 0.75 7.87611Z" fill="#50A0C8"/>
</svg>
