<svg width="25" height="24" viewBox="0 0 25 24" fill="none" xmlns="http://www.w3.org/2000/svg">
<path d="M23.29 0H1.21C0.679 0 0.25 0.429 0.25 0.96V23.04C0.25 23.571 0.679 24 1.21 24H23.29C23.821 24 24.25 23.571 24.25 23.04V0.96C24.25 0.429 23.821 0 23.29 0ZM20.518 7.005H18.601C17.098 7.005 16.807 7.719 16.807 8.769V11.082H20.395L19.927 14.703H16.807V24H13.066V14.706H9.937V11.082H13.066V8.412C13.066 5.313 14.959 3.624 17.725 3.624C19.051 3.624 20.188 3.723 20.521 3.768V7.005H20.518Z" fill="white"/>
</svg>
