<svg width="25" height="24" viewBox="0 0 25 24" fill="none" xmlns="http://www.w3.org/2000/svg">
<path fill-rule="evenodd" clip-rule="evenodd" d="M0.25 2.00509C0.25 1.47331 0.46125 0.963308 0.837278 0.58728C1.21331 0.211253 1.72331 2.67307e-06 2.25509 2.67307e-06H22.2427C22.5063 -0.000427747 22.7673 0.0511258 23.0109 0.151712C23.2545 0.252298 23.4758 0.399941 23.6623 0.586188C23.8487 0.772435 23.9966 0.993628 24.0975 1.2371C24.1983 1.48058 24.2501 1.74156 24.25 2.00509V21.9927C24.2503 22.2563 24.1986 22.5174 24.0979 22.761C23.9972 23.0046 23.8494 23.2259 23.6631 23.4123C23.4768 23.5988 23.2555 23.7466 23.012 23.8475C22.7684 23.9483 22.5074 24.0001 22.2438 24H2.25509C1.99169 24 1.73086 23.9481 1.48752 23.8473C1.24418 23.7464 1.0231 23.5986 0.836892 23.4123C0.650688 23.226 0.503017 23.0049 0.402316 22.7615C0.301614 22.5181 0.249857 22.2572 0.25 21.9938V2.00509ZM9.74964 9.15055H12.9995V10.7825C13.4685 9.84437 14.6685 9 16.4718 9C19.9289 9 20.7482 10.8687 20.7482 14.2975V20.6487H17.2496V15.0785C17.2496 13.1258 16.7805 12.024 15.5893 12.024C13.9365 12.024 13.2493 13.212 13.2493 15.0785V20.6487H9.74964V9.15055ZM3.74964 20.4993H7.24927V9H3.74964V20.4982V20.4993ZM7.75 5.24946C7.7566 5.5491 7.70328 5.84704 7.59317 6.1258C7.48306 6.40456 7.31838 6.65851 7.1088 6.87276C6.89921 7.08702 6.64894 7.25725 6.37268 7.37346C6.09641 7.48968 5.79972 7.54955 5.5 7.54955C5.20028 7.54955 4.90359 7.48968 4.62732 7.37346C4.35106 7.25725 4.10079 7.08702 3.8912 6.87276C3.68162 6.65851 3.51694 6.40456 3.40683 6.1258C3.29672 5.84704 3.2434 5.5491 3.25 5.24946C3.26295 4.6613 3.50569 4.10159 3.92624 3.69021C4.34678 3.27882 4.9117 3.04846 5.5 3.04846C6.0883 3.04846 6.65322 3.27882 7.07376 3.69021C7.49431 4.10159 7.73705 4.6613 7.75 5.24946Z" fill="white" fill-opacity="0.7"/>
</svg>
